<?xml version="1.0" standalone="no"?>
<!DOCTYPE svg PUBLIC "-//W3C//DTD SVG 20010904//EN"
 "http://www.w3.org/TR/2001/REC-SVG-20010904/DTD/svg10.dtd">
<svg version="1.0" xmlns="http://www.w3.org/2000/svg"
 width="400.000000pt" height="400.000000pt" viewBox="0 0 400.000000 400.000000"
 preserveAspectRatio="xMidYMid meet">
<metadata>
Created by potrace 1.11, written by Peter Selinger 2001-2013
</metadata>
<g transform="translate(0.000000,400.000000) scale(0.100000,-0.100000)"
fill="#000000" stroke="none">
<path d="M787 3744 c-97 -25 -169 -95 -204 -197 -16 -48 -17 -112 -17 -817 0
-689 4 -855 19 -924 3 -11 7 -33 10 -48 12 -63 17 -85 46 -177 32 -98 107
-273 121 -279 5 -2 8 -8 8 -13 0 -10 96 -165 114 -185 6 -7 22 -27 36 -46 72
-96 288 -308 314 -308 4 0 17 -9 29 -21 12 -11 35 -28 52 -36 16 -9 35 -22 43
-29 13 -13 27 -18 45 -15 5 1 6 -3 3 -8 -6 -8 16 -21 37 -21 4 0 16 -9 28 -21
11 -11 27 -18 35 -15 8 3 14 2 14 -3 0 -9 86 -48 175 -79 80 -28 220 -62 324
-79 20 -3 298 -8 617 -10 l582 -4 20 25 c21 27 19 60 -10 160 -6 22 -12 43
-13 46 -5 17 -34 72 -61 115 -76 120 -223 227 -359 261 -16 4 -37 9 -45 12 -8
2 -123 6 -255 8 -405 5 -469 13 -634 73 -82 30 -208 99 -270 149 -57 46 -150
144 -196 207 -44 61 -125 210 -140 255 -4 14 -8 27 -9 30 -9 23 -36 121 -41
145 -15 81 -18 194 -20 885 -1 410 -5 758 -9 774 -24 99 -104 174 -205 193
-57 10 -139 9 -184 -3z"/>
<path d="M2158 2745 c-2 -2 -21 -5 -43 -8 -68 -10 -225 -71 -225 -89 0 -4 -7
-8 -15 -8 -9 0 -18 -7 -21 -15 -4 -8 -12 -15 -19 -15 -17 0 -141 -132 -150
-159 -3 -12 -10 -21 -14 -21 -4 0 -15 -17 -24 -37 -18 -42 -39 -98 -37 -98 1
0 -3 -13 -9 -28 -31 -82 -34 -241 -7 -342 2 -5 6 -23 11 -40 27 -105 155 -278
255 -346 49 -33 137 -74 206 -94 90 -28 258 -26 353 4 69 21 169 66 181 81 3
4 13 11 23 17 48 26 196 195 206 235 1 4 11 27 21 51 35 78 49 164 46 271 -2
56 -6 108 -8 116 -56 194 -111 280 -254 399 -50 40 -191 101 -272 117 -63 12
-194 18 -204 9z"/>
</g>
</svg>
